<?xml version="1.0" encoding="iso-8859-1"?>
<!-- Uploaded to: SVG Repo, www.svgrepo.com, Generator: SVG Repo Mixer Tools -->
<svg version="1.1" id="Layer_1" xmlns="http://www.w3.org/2000/svg" xmlns:xlink="http://www.w3.org/1999/xlink" 
	 viewBox="0 0 512 512" xml:space="preserve">
<circle style="fill:#FFC61B;" cx="256" cy="256" r="256"/>
<path style="fill:#EAA22F;" d="M509.031,295.098l-76.259-76.666l-4.534,2.008L307.169,98.976l-45.692-19.272l-56.646,30.242
	l58.556,58.556l-115.419,3.601l0.467,84.902l-82.53,81.92l172.834,172.48C244.445,511.786,250.197,512,256,512
	C384.091,512,490.208,417.925,509.031,295.098z"/>
<path style="fill:#477F3C;" d="M357.71,235.313c-4.284,0-7.758-3.474-7.758-7.758v-49.131H162.047v49.131
	c0,4.284-3.474,7.758-7.758,7.758c-4.284,0-7.758-3.474-7.758-7.758v-56.889c0-4.284,3.474-7.758,7.758-7.758H357.71
	c4.284,0,7.758,3.474,7.758,7.758v56.889C365.468,231.839,361.996,235.313,357.71,235.313z"/>
<path style="fill:#2E5E24;" d="M357.71,162.909H255.426v15.515h94.527v49.131c0,4.284,3.474,7.758,7.758,7.758
	s7.758-3.474,7.758-7.758v-56.889C365.468,166.383,361.996,162.909,357.71,162.909z"/>
<path style="fill:#808183;" d="M425.053,332.884H289.932c-6.018,0-10.897-4.879-10.897-10.897v-95.894
	c0-6.018,4.879-10.897,10.897-10.897h135.121c6.018,0,10.897,4.879,10.897,10.897v95.894
	C435.95,328.006,431.071,332.884,425.053,332.884z"/>
<path style="fill:#59595B;" d="M425.053,215.197h-66.767v117.688h66.767c6.018,0,10.897-4.879,10.897-10.897v-95.894
	C435.95,220.076,431.071,215.197,425.053,215.197z"/>
<rect x="287.944" y="224.711" style="fill:#71E2EF;" width="139.085" height="98.659"/>
<rect x="358.279" y="224.711" style="fill:#38C6D9;" width="68.748" height="98.659"/>
<path style="fill:#59595B;" d="M274.692,341.333h165.598c4.536,0,8.213-3.677,8.213-8.213v-8.949c0-4.536-3.677-8.213-8.213-8.213
	H274.692c-4.536,0-8.213,3.677-8.213,8.213v8.949C266.48,337.656,270.157,341.333,274.692,341.333z"/>
<path style="fill:#272525;" d="M440.291,315.961h-82.004v25.372h82.004c4.536,0,8.213-3.677,8.213-8.213v-8.949
	C448.502,319.638,444.826,315.961,440.291,315.961z"/>
<path style="fill:#808183;" d="M222.072,332.884H86.949c-6.018,0-10.897-4.879-10.897-10.897v-95.894
	c0-6.018,4.879-10.897,10.897-10.897H222.07c6.018,0,10.897,4.879,10.897,10.897v95.894
	C232.969,328.006,228.09,332.884,222.072,332.884z"/>
<path style="fill:#59595B;" d="M222.072,215.197h-68.356v117.688h68.355c6.018,0,10.897-4.879,10.897-10.897v-95.894
	C232.969,220.076,228.09,215.197,222.072,215.197z"/>
<rect x="84.971" y="224.711" style="fill:#71E2EF;" width="139.085" height="98.659"/>
<rect x="153.721" y="224.711" style="fill:#38C6D9;" width="70.335" height="98.659"/>
<path style="fill:#59595B;" d="M71.711,341.333h165.598c4.536,0,8.213-3.677,8.213-8.213v-8.949c0-4.536-3.677-8.213-8.213-8.213
	H71.711c-4.536,0-8.213,3.677-8.213,8.213v8.949C63.498,337.656,67.175,341.333,71.711,341.333z"/>
<path style="fill:#272525;" d="M237.309,315.961h-83.594v25.372h83.594c4.536,0,8.213-3.677,8.213-8.213v-8.949
	C245.522,319.638,241.845,315.961,237.309,315.961z"/>
<g>
	<path style="fill:#477F3C;" d="M281.843,132.058c-1.984,0-3.972-0.757-5.487-2.272c-5.435-5.437-12.666-8.433-20.356-8.433
		c-7.69,0-14.919,2.994-20.356,8.433c-3.031,3.031-7.94,3.029-10.971,0.002c-3.031-3.031-3.031-7.942-0.002-10.971
		c8.368-8.368,19.494-12.978,31.329-12.978s22.959,4.61,31.329,12.978c3.029,3.029,3.029,7.94-0.002,10.971
		C285.811,131.301,283.827,132.058,281.843,132.058z"/>
	<path style="fill:#477F3C;" d="M265.137,148.766c-1.986,0-3.972-0.757-5.487-2.272c-0.974-0.976-2.27-1.514-3.65-1.514
		c0,0,0,0-0.002,0c-1.379,0-2.676,0.538-3.65,1.512c-3.027,3.031-7.942,3.031-10.969,0c-3.031-3.029-3.031-7.94,0-10.969
		c3.905-3.906,9.097-6.058,14.619-6.058c0.002,0,0.002,0,0.002,0c5.525,0.002,10.717,2.153,14.622,6.06
		c3.029,3.031,3.029,7.942-0.002,10.971C269.107,148.008,267.123,148.766,265.137,148.766z"/>
	<path style="fill:#477F3C;" d="M301.684,112.219c-1.984,0-3.972-0.757-5.485-2.272c-22.164-22.164-58.232-22.164-80.398,0
		c-3.027,3.031-7.942,3.031-10.969,0c-3.031-3.029-3.031-7.94,0-10.969C218.498,85.309,236.672,77.783,256,77.783
		s37.502,7.527,51.169,21.195c3.031,3.029,3.031,7.94,0,10.969C305.655,111.461,303.669,112.219,301.684,112.219z"/>
</g>
<g>
	<path style="fill:#2E5E24;" d="M287.329,118.817c-8.368-8.368-19.494-12.978-31.329-12.978c-0.191,0-0.383,0.012-0.574,0.014
		v15.529c0.193-0.003,0.381-0.028,0.574-0.028c7.69,0,14.919,2.994,20.356,8.433c1.515,1.515,3.501,2.272,5.487,2.272
		c1.986,0,3.97-0.757,5.486-2.27C290.357,126.757,290.357,121.846,287.329,118.817z"/>
	<path style="fill:#2E5E24;" d="M270.624,135.523c-3.906-3.906-9.097-6.058-14.622-6.06c0,0,0,0-0.002,0
		c-0.193,0-0.381,0.022-0.572,0.028v15.543c0.19-0.021,0.378-0.055,0.572-0.055c0.002,0,0.002,0,0.002,0
		c1.379,0,2.676,0.538,3.65,1.514c1.515,1.515,3.5,2.272,5.487,2.272c1.984,0,3.97-0.757,5.485-2.27
		C273.653,143.467,273.653,138.554,270.624,135.523z"/>
	<path style="fill:#2E5E24;" d="M307.169,98.976C293.502,85.307,275.328,77.781,256,77.781c-0.191,0-0.383,0.012-0.574,0.014v15.541
		c14.75-0.147,29.544,5.382,40.772,16.61c1.514,1.515,3.5,2.272,5.486,2.272c1.986,0,3.972-0.757,5.485-2.272
		C310.2,106.918,310.2,102.005,307.169,98.976z"/>
</g>
</svg>